<svg t="1589181101457" class="icon" viewBox="0 0 1228 1024" version="1.1" xmlns="http://www.w3.org/2000/svg" p-id="3534" width="200" height="200"><path d="M409.6 716.8h409.6V614.4H409.6v102.4z m0 102.4v102.4h409.6V819.2H409.6z m512-102.4h204.8v102.4H921.6v102.4h204.8V411.648H921.6V512h204.8v102.4H921.6v102.4zM307.2 716.8V614.4H102.4V512h204.8v-100.352H102.4V921.6h204.8V819.2H102.4V716.8h204.8z m102.4-204.8h409.6v-100.352H409.6V512zM102.4 0h1024a102.4 102.4 0 0 1 102.4 102.4v819.2a102.4 102.4 0 0 1-102.4 102.4H102.4a102.4 102.4 0 0 1-102.4-102.4V102.4a102.4 102.4 0 0 1 102.4-102.4z" p-id="3535"></path></svg>
